<svg width="298" height="53" viewBox="0 0 298 53" fill="none" xmlns="http://www.w3.org/2000/svg">
<path d="M74.784 16.728C77.76 16.728 80.256 17.016 82.272 17.592C84.288 18.136 85.792 19.032 86.784 20.28C87.808 21.528 88.32 23.208 88.32 25.32C88.32 26.632 88.096 27.816 87.648 28.872C87.2 29.928 86.544 30.792 85.68 31.464C84.848 32.136 83.808 32.584 82.56 32.808V33.048C83.84 33.272 84.976 33.688 85.968 34.296C86.992 34.872 87.792 35.72 88.368 36.84C88.976 37.928 89.28 39.368 89.28 41.16C89.28 43.24 88.784 45.016 87.792 46.488C86.8 47.96 85.376 49.08 83.52 49.848C81.696 50.616 79.52 51 76.992 51H64.464V16.728H74.784ZM75.6 30.696C78.032 30.696 79.696 30.312 80.592 29.544C81.52 28.776 81.984 27.64 81.984 26.136C81.984 24.6 81.44 23.496 80.352 22.824C79.264 22.152 77.52 21.816 75.12 21.816H70.608V30.696H75.6ZM70.608 35.64V45.864H76.176C78.672 45.864 80.4 45.384 81.36 44.424C82.352 43.464 82.848 42.184 82.848 40.584C82.848 39.56 82.64 38.68 82.224 37.944C81.808 37.208 81.088 36.648 80.064 36.264C79.04 35.848 77.648 35.64 75.888 35.64H70.608ZM118.515 37.944C118.515 40.12 118.227 42.04 117.651 43.704C117.075 45.368 116.243 46.792 115.155 47.976C114.099 49.128 112.787 50.008 111.219 50.616C109.683 51.192 107.971 51.48 106.083 51.48C104.291 51.48 102.643 51.192 101.139 50.616C99.635 50.008 98.323 49.128 97.203 47.976C96.115 46.792 95.267 45.368 94.659 43.704C94.051 42.04 93.747 40.12 93.747 37.944C93.747 35.064 94.243 32.632 95.235 30.648C96.227 28.632 97.651 27.112 99.507 26.088C101.395 25.032 103.619 24.504 106.179 24.504C108.611 24.504 110.739 25.032 112.563 26.088C114.419 27.112 115.875 28.632 116.931 30.648C117.987 32.632 118.515 35.064 118.515 37.944ZM99.939 37.944C99.939 39.768 100.147 41.336 100.563 42.648C101.011 43.928 101.683 44.904 102.579 45.576C103.507 46.248 104.691 46.584 106.131 46.584C107.603 46.584 108.787 46.248 109.683 45.576C110.611 44.904 111.283 43.928 111.699 42.648C112.115 41.336 112.323 39.768 112.323 37.944C112.323 36.088 112.099 34.536 111.651 33.288C111.235 32.008 110.563 31.048 109.635 30.408C108.739 29.736 107.571 29.4 106.131 29.4C103.955 29.4 102.371 30.136 101.379 31.608C100.419 33.08 99.939 35.192 99.939 37.944ZM147.519 37.944C147.519 40.12 147.231 42.04 146.655 43.704C146.079 45.368 145.247 46.792 144.159 47.976C143.103 49.128 141.791 50.008 140.223 50.616C138.687 51.192 136.975 51.48 135.087 51.48C133.295 51.48 131.647 51.192 130.143 50.616C128.639 50.008 127.327 49.128 126.207 47.976C125.119 46.792 124.271 45.368 123.663 43.704C123.055 42.04 122.751 40.12 122.751 37.944C122.751 35.064 123.247 32.632 124.239 30.648C125.231 28.632 126.655 27.112 128.511 26.088C130.399 25.032 132.623 24.504 135.183 24.504C137.615 24.504 139.743 25.032 141.567 26.088C143.423 27.112 144.879 28.632 145.935 30.648C146.991 32.632 147.519 35.064 147.519 37.944ZM128.943 37.944C128.943 39.768 129.151 41.336 129.567 42.648C130.015 43.928 130.687 44.904 131.583 45.576C132.511 46.248 133.695 46.584 135.135 46.584C136.607 46.584 137.791 46.248 138.687 45.576C139.615 44.904 140.287 43.928 140.703 42.648C141.119 41.336 141.327 39.768 141.327 37.944C141.327 36.088 141.103 34.536 140.655 33.288C140.239 32.008 139.567 31.048 138.639 30.408C137.743 29.736 136.575 29.4 135.135 29.4C132.959 29.4 131.375 30.136 130.383 31.608C129.423 33.08 128.943 35.192 128.943 37.944ZM159.292 31.848C159.292 32.68 159.26 33.56 159.196 34.488C159.132 35.384 159.068 36.264 159.004 37.128H159.148C159.404 36.744 159.708 36.328 160.06 35.88C160.412 35.4 160.764 34.936 161.116 34.488C161.5 34.008 161.868 33.576 162.22 33.192L169.9 24.984H176.764L166.348 36.216L177.436 51H170.38L162.316 39.864L159.292 42.36V51H153.292V14.52H159.292V31.848ZM187.079 23.16C187.079 24.184 187.047 25.176 186.983 26.136C186.919 27.096 186.855 27.848 186.791 28.392H187.079C187.783 27.304 188.743 26.392 189.959 25.656C191.175 24.888 192.759 24.504 194.711 24.504C197.751 24.504 200.199 25.64 202.055 27.912C203.911 30.184 204.839 33.528 204.839 37.944C204.839 40.92 204.407 43.416 203.543 45.432C202.711 47.448 201.511 48.968 199.943 49.992C198.407 50.984 196.615 51.48 194.567 51.48C192.615 51.48 191.047 51.128 189.863 50.424C188.711 49.72 187.783 48.904 187.079 47.976H186.647L185.543 51H181.031V14.52H187.079V23.16ZM192.983 29.4C191.511 29.4 190.343 29.688 189.479 30.264C188.647 30.84 188.039 31.72 187.655 32.904C187.271 34.088 187.079 35.592 187.079 37.416V37.944C187.079 40.728 187.495 42.856 188.327 44.328C189.191 45.8 190.775 46.536 193.079 46.536C194.871 46.536 196.247 45.8 197.207 44.328C198.167 42.824 198.647 40.68 198.647 37.896C198.647 35.08 198.151 32.968 197.159 31.56C196.199 30.12 194.807 29.4 192.983 29.4ZM220.965 24.504C224.325 24.504 226.869 25.24 228.597 26.712C230.357 28.152 231.237 30.424 231.237 33.528V51H226.965L225.765 47.4H225.573C224.837 48.328 224.069 49.112 223.269 49.752C222.501 50.36 221.605 50.792 220.581 51.048C219.589 51.336 218.373 51.48 216.933 51.48C215.397 51.48 214.005 51.192 212.757 50.616C211.541 50.04 210.581 49.16 209.877 47.976C209.173 46.76 208.821 45.24 208.821 43.416C208.821 40.728 209.797 38.712 211.749 37.368C213.733 35.992 216.725 35.24 220.725 35.112L225.237 34.968V33.672C225.237 32.008 224.837 30.824 224.037 30.12C223.237 29.416 222.117 29.064 220.677 29.064C219.365 29.064 218.101 29.256 216.885 29.64C215.669 30.024 214.485 30.472 213.333 30.984L211.413 26.76C212.693 26.088 214.149 25.544 215.781 25.128C217.445 24.712 219.173 24.504 220.965 24.504ZM222.069 38.808C219.413 38.904 217.573 39.368 216.549 40.2C215.525 41 215.013 42.088 215.013 43.464C215.013 44.68 215.381 45.56 216.117 46.104C216.853 46.648 217.797 46.92 218.949 46.92C220.709 46.92 222.197 46.424 223.413 45.432C224.629 44.408 225.237 42.904 225.237 40.92V38.712L222.069 38.808ZM251.968 24.504C252.352 24.504 252.8 24.52 253.312 24.552C253.824 24.584 254.256 24.648 254.608 24.744L254.08 30.36C253.792 30.296 253.408 30.248 252.928 30.216C252.48 30.152 252.08 30.12 251.728 30.12C250.768 30.12 249.84 30.28 248.944 30.6C248.08 30.888 247.296 31.336 246.592 31.944C245.92 32.52 245.376 33.272 244.96 34.2C244.576 35.128 244.384 36.232 244.384 37.512V51H238.336V24.984H242.992L243.856 29.496H244.144C244.656 28.568 245.296 27.736 246.064 27C246.832 26.232 247.712 25.624 248.704 25.176C249.728 24.728 250.816 24.504 251.968 24.504Z" fill="white"/>
<path d="M22.6901 47.0116C22.6901 47.0116 18.6383 44.0001 1.62109 42.5107V49.9576H17.828C18.7396 48.2315 20.6048 47.1014 22.6901 47.0116Z" fill="#DCE9EF"/>
<path d="M24.3105 47.0116C24.3105 47.0116 28.3623 44.0001 45.3795 42.5107V49.9576H29.1726C28.261 48.2315 26.3958 47.1014 24.3105 47.0116Z" fill="#DCE9EF"/>
<path d="M1.62109 46.2344H12.1556V47.7237H1.62109V46.2344Z" fill="#58B1CC"/>
<path d="M34.8447 46.2344H45.3792V47.7237H34.8447V46.2344Z" fill="#58B1CC"/>
<path d="M31.6035 46.2344H33.2242V47.7237H31.6035V46.2344Z" fill="#58B1CC"/>
<path d="M22.6898 37.2975C22.6898 37.2975 33.2243 31.34 25.1208 24.6378C17.0174 17.9357 15.6495 13.4676 17.0174 9.74414C17.0174 9.74414 6.79826 19.0898 16.207 26.8719C24.3105 33.574 22.6898 37.2975 22.6898 37.2975Z" fill="#DCD0F7"/>
<path d="M29.1722 23.8931C29.1722 23.8931 23.0056 20.4512 27.5515 17.191C32.0974 13.9308 32.3704 11.5553 31.6032 9.74414C31.6032 9.74414 38.5026 14.8944 33.2239 18.6804C28.678 21.9405 29.1722 23.8931 29.1722 23.8931Z" fill="#DCD0F7"/>
<path d="M23.5 29.1064H25.1207V30.5958H23.5V29.1064Z" fill="#D9176C"/>
<path d="M21.0693 26.873H22.69V28.3624H21.0693V26.873Z" fill="#D9176C"/>
<path d="M42.9484 28.3615C41.6058 28.3615 40.5173 27.3612 40.5173 26.1275C40.5173 25.7162 40.1545 25.3828 39.707 25.3828C39.2595 25.3828 38.8967 25.7162 38.8967 26.1275C38.8967 27.3612 37.8081 28.3615 36.4656 28.3615C36.0181 28.3615 35.6553 28.695 35.6553 29.1062C35.6553 29.5175 36.0181 29.8509 36.4656 29.8509C37.8081 29.8509 38.8967 30.8512 38.8967 32.085C38.8967 32.4962 39.2595 32.8297 39.707 32.8297C40.1545 32.8297 40.5173 32.4962 40.5173 32.085C40.5173 30.8512 41.6058 29.8509 42.9484 29.8509C43.3959 29.8509 43.7587 29.5175 43.7587 29.1062C43.7587 28.695 43.3959 28.3615 42.9484 28.3615ZM39.707 29.8738C39.4708 29.5818 39.1895 29.3233 38.8717 29.1062C39.1895 28.8892 39.4708 28.6306 39.707 28.3386C39.9432 28.6306 40.2245 28.8892 40.5423 29.1062C40.2245 29.3233 39.9432 29.5818 39.707 29.8738Z" fill="#FFD782"/>
<path d="M16.2072 35.8088C14.8646 35.8088 13.7761 34.8085 13.7761 33.5748C13.7761 33.1635 13.4133 32.8301 12.9658 32.8301C12.5183 32.8301 12.1554 33.1635 12.1554 33.5748C12.1554 34.8085 11.0669 35.8088 9.72441 35.8088C9.2769 35.8088 8.91406 36.1423 8.91406 36.5535C8.91406 36.9648 9.2769 37.2982 9.72441 37.2982C11.0669 37.2982 12.1554 38.2985 12.1554 39.5322C12.1554 39.9435 12.5183 40.2769 12.9658 40.2769C13.4133 40.2769 13.7761 39.9435 13.7761 39.5322C13.7761 38.2985 14.8646 37.2982 16.2072 37.2982C16.6547 37.2982 17.0175 36.9648 17.0175 36.5535C17.0175 36.1423 16.6547 35.8088 16.2072 35.8088ZM12.9658 37.3211C12.7296 37.0291 12.4482 36.7706 12.1305 36.5535C12.4482 36.3364 12.7296 36.0779 12.9658 35.7859C13.202 36.0779 13.4833 36.3364 13.8011 36.5535C13.4833 36.7706 13.202 37.0291 12.9658 37.3211Z" fill="#FFD782"/>
<path d="M26.7413 11.9787C25.3988 11.9787 24.3103 10.9784 24.3103 9.74468C24.3103 9.33344 23.9475 9 23.5 9C23.0525 9 22.6896 9.33344 22.6896 9.74468C22.6896 10.9784 21.6011 11.9787 20.2586 11.9787C19.8111 11.9787 19.4482 12.3122 19.4482 12.7234C19.4482 13.1347 19.8111 13.4681 20.2586 13.4681C21.6011 13.4681 22.6896 14.4684 22.6896 15.7022C22.6896 16.1134 23.0525 16.4468 23.5 16.4468C23.9475 16.4468 24.3103 16.1134 24.3103 15.7022C24.3103 14.4684 25.3988 13.4681 26.7413 13.4681C27.1889 13.4681 27.5517 13.1347 27.5517 12.7234C27.5517 12.3122 27.1889 11.9787 26.7413 11.9787ZM23.5 13.491C23.2637 13.199 22.9824 12.9405 22.6647 12.7234C22.9824 12.5063 23.2637 12.2478 23.5 11.9558C23.7362 12.2478 24.0175 12.5063 24.3352 12.7234C24.0175 12.9405 23.7362 13.199 23.5 13.491Z" fill="#FFD782"/>
<path d="M32.4141 23.1494H34.0348V24.6388H32.4141V23.1494Z" fill="#D9176C"/>
<path d="M32.4141 32.8301H34.0348V34.3195H32.4141V32.8301Z" fill="#D9176C"/>
<path d="M11.3447 29.1064H12.9654V30.5958H11.3447V29.1064Z" fill="#D9176C"/>
<path d="M19.4482 40.2773H21.0689V41.7667H19.4482V40.2773Z" fill="#D9176C"/>
<path d="M4.05176 36.5537H5.67245V38.0431H4.05176V36.5537Z" fill="#D9176C"/>
<path d="M30.7931 38.7872C30.7931 39.6097 30.0675 40.2766 29.1724 40.2766C28.2774 40.2766 27.5518 39.6097 27.5518 38.7872C27.5518 37.9647 28.2774 37.2979 29.1724 37.2979C30.0675 37.2979 30.7931 37.9647 30.7931 38.7872Z" fill="#87CEE9"/>
<path d="M8.91423 26.1271C8.91423 26.9496 8.18856 27.6164 7.29354 27.6164C6.39852 27.6164 5.67285 26.9496 5.67285 26.1271C5.67285 25.3046 6.39852 24.6377 7.29354 24.6377C8.18856 24.6377 8.91423 25.3046 8.91423 26.1271Z" fill="#87CEE9"/>
<path d="M42.1379 18.6808C42.1379 19.5033 41.4122 20.1701 40.5172 20.1701C39.6222 20.1701 38.8965 19.5033 38.8965 18.6808C38.8965 17.8583 39.6222 17.1914 40.5172 17.1914C41.4122 17.1914 42.1379 17.8583 42.1379 18.6808Z" fill="#87CEE9"/>
<path d="M26.7414 52.936C26.7414 51.291 25.29 49.9573 23.5 49.9573C21.71 49.9573 20.2586 51.291 20.2586 52.936H0V49.9573H17.8276C18.6379 48.4679 20.2586 46.9785 23.5 46.9785C26.7414 46.9785 28.3621 48.4679 29.1724 49.9573H47V52.936H26.7414Z" fill="#8D28AD"/>
<path d="M0 49.958H6.48276V52.9367H0V49.958Z" fill="#5C067C"/>
<path d="M40.5176 49.958H47.0003V52.9367H40.5176V49.958Z" fill="#5C067C"/>
</svg>
